<svg aria-hidden="true" style="position: absolute; width: 0; height: 0; overflow: hidden;" version="1.1" xmlns="http://www.w3.org/2000/svg" xmlns:xlink="http://www.w3.org/1999/xlink">
<defs>
<symbol id="icon-Palette" viewBox="0 0 32 32">
<path d="M16 0c-8.822 0-16 7.16-16 15.959 0 8.54 6.704 15.534 15.262 15.923l2.576 0.118-5.446-5.432c-0.566-0.564-0.878-1.317-0.878-2.117s0.312-1.55 0.878-2.117c1.132-1.129 3.11-1.129 4.242 0l7.438 7.419 0.68-0.445c4.54-2.964 7.248-7.956 7.248-13.35 0-8.8-7.178-15.959-16-15.959zM24.32 27.18l-6.27-6.254c-1.886-1.883-5.184-1.883-7.070 0-0.944 0.942-1.464 2.194-1.464 3.527s0.52 2.585 1.464 3.527l1.482 1.478c-6.052-1.562-10.462-7.022-10.462-13.499 0-7.7 6.28-13.964 14-13.964s14 6.264 14 13.964c0 4.449-2.108 8.588-5.68 11.221zM22 11.969c-2.206 0-4 1.789-4 3.99s1.794 3.99 4 3.99 4-1.789 4-3.99c0-2.2-1.794-3.99-4-3.99zM22 17.954c-1.102 0-2-0.896-2-1.995s0.898-1.995 2-1.995 2 0.896 2 1.995c0 1.099-0.898 1.995-2 1.995zM16 10.972c-1.656 0-3-1.339-3-2.992s1.344-2.992 3-2.992c1.658 0 3 1.339 3 2.992s-1.342 2.992-3 2.992zM10.5 10.754c0 1.101-0.896 1.995-2 1.995s-2-0.894-2-1.995c0-1.101 0.896-1.995 2-1.995s2 0.892 2 1.995z"></path>
</symbol>
<symbol id="icon-Paint-Roller" viewBox="0 0 32 32">
<path d="M30 3.89v-3.89h-26v3.89h-1.032c-1.636 0-2.968 1.313-2.968 2.927v5.816c0 1.614 1.332 2.927 2.968 2.927h12.048c0.55 0 1 0.438 1 0.973v2.918h-2.016v13.616h6v-13.616h-1.984v-2.918c0-1.609-1.346-2.918-3-2.918h-12.048c-0.532 0-0.968-0.441-0.968-0.982v-5.816c0-0.541 0.436-0.982 0.968-0.982h1.032v5.835h26v-5.835h2v-1.945h-2zM18 31.122h-2v-9.726h2v9.726zM28 9.726h-22v-7.78h22v7.78z"></path>
</symbol>
<symbol id="icon-Paint-Bucket" viewBox="0 0 32 32">
<path d="M30.389 18.837l-16.136-16.152-0.244 0.241c-1.215-1.196-2.824-1.857-4.536-1.859 0 0 0 0-0.002 0-1.725 0-3.35 0.67-4.571 1.884-1.223 1.215-1.896 2.829-1.896 4.55 0 1.703 0.666 3.303 1.869 4.512l-4.018 3.998c-0.551 0.55-0.855 1.278-0.855 2.051 0 0.776 0.302 1.502 0.85 2.045l8.754 8.795c0.55 0.547 1.281 0.849 2.058 0.849 0.781 0 1.512-0.304 2.062-0.852l10.113-10.060 6.552-0.002zM4.824 7.499c0-1.234 0.484-2.395 1.363-3.269 0.879-0.872 2.043-1.354 3.284-1.354 0.002 0 0.002 0 0.002 0 1.226 0 2.376 0.474 3.25 1.329l-6.561 6.529c-0.861-0.871-1.337-2.015-1.337-3.235zM12.433 27.621c-0.206 0.205-0.482 0.32-0.773 0.32s-0.566-0.112-0.768-0.315l-6.616-6.65h14.837l-6.68 6.644zM20.933 19.167h-18.46l-0.333-0.337c-0.207-0.205-0.32-0.476-0.32-0.766 0-0.291 0.115-0.565 0.322-0.773l12.108-12.044 11.769 11.781-2.937 0.002-2.149 2.136zM28.546 22.712l-0.741-1.093-0.761 1.082c-0.58 0.827-2.48 3.64-2.48 5.064 0 1.747 1.428 3.167 3.184 3.167s3.184-1.423 3.184-3.169c0-1.415-1.827-4.225-2.387-5.052zM27.749 29.122c-0.751 0-1.365-0.61-1.365-1.357 0-0.434 0.635-1.665 1.394-2.88 0.728 1.213 1.336 2.442 1.336 2.88 0 0.748-0.613 1.357-1.365 1.357z"></path>
</symbol>
</defs>
</svg>
