<svg xmlns="http://www.w3.org/2000/svg" aria-hidden="true" style="position:absolute;width:0;height:0;overflow:hidden">
<defs>
<symbol id="icon-twitter-icon" viewBox="0 0 32 32">
<path d="M28.711 8.877c.02.284.02.569.02.853 0 8.67-6.599 18.66-18.66 18.66A18.53 18.53 0 0 1 0 25.446c.528.061 1.036.081 1.584.081 3.066 0 5.888-1.036 8.142-2.802a6.57 6.57 0 0 1-6.132-4.548c.406.061.812.102 1.239.102.589 0 1.178-.081 1.726-.223A6.56 6.56 0 0 1 1.3 11.619v-.081a6.6 6.6 0 0 0 2.964.832A6.556 6.556 0 0 1 1.34 6.908c0-1.218.325-2.335.893-3.31a18.639 18.639 0 0 0 13.523 6.863 7.437 7.437 0 0 1-.162-1.502 6.555 6.555 0 0 1 6.558-6.558c1.888 0 3.594.792 4.792 2.071a12.918 12.918 0 0 0 4.163-1.584 6.539 6.539 0 0 1-2.883 3.614 13.168 13.168 0 0 0 3.777-1.015 14.103 14.103 0 0 1-3.289 3.391z" />
</symbol>
<symbol id="icon-dribbble-icon" viewBox="0 0 32 32">
<path d="M15.5 0C6.953 0 0 6.953 0 15.5S6.953 31 15.5 31 31 24.047 31 15.5 24.047 0 15.5 0zm10.248 7.148a13.18 13.18 0 0 1 2.99 8.247c-.436-.092-4.814-.98-9.219-.426-.36-.878-.699-1.65-1.164-2.601 4.895-1.999 7.114-4.843 7.393-5.22zm-1.472-1.531c-.238.339-2.231 3.018-6.939 4.782a70.439 70.439 0 0 0-4.94-7.75 13.205 13.205 0 0 1 11.879 2.968zM9.871 3.539a84.522 84.522 0 0 1 4.909 7.657c-6.193 1.645-11.648 1.621-12.24 1.613.859-4.108 3.627-7.523 7.331-9.27zM2.261 15.52c0-.135.003-.27.007-.405.579.012 6.995.095 13.607-1.884.379.742.741 1.495 1.073 2.247-4.787 1.348-9.137 5.22-11.283 8.894a13.185 13.185 0 0 1-3.404-8.852zm5.113 10.445c1.383-2.827 5.136-6.476 10.474-8.297 1.859 4.83 2.628 8.878 2.824 10.04a13.212 13.212 0 0 1-13.298-1.743zm15.523.53c-.136-.805-.84-4.681-2.572-9.44 4.149-.664 7.794.423 8.247.566a13.265 13.265 0 0 1-5.675 8.874z"/>
</symbol>
<symbol id="icon-github-icon" viewBox="0 0 32 32">
<path d="M10.703 25.123c0 .129-.148.232-.335.232-.213.019-.361-.084-.361-.232 0-.129.148-.232.335-.232.194-.019.361.084.361.232zm-2.006-.291c-.045.129.084.277.277.316.168.065.361 0 .4-.129s-.084-.277-.277-.336c-.168-.045-.355.019-.4.148zm2.851-.109c-.187.045-.316.168-.297.316.019.129.187.213.381.168.187-.045.316-.168.297-.297-.019-.123-.194-.206-.381-.187zM15.794 0C6.846 0 0 6.794 0 15.742c0 7.155 4.503 13.277 10.935 15.432.826.148 1.116-.361 1.116-.781 0-.4-.019-2.607-.019-3.961 0 0-4.516.968-5.465-1.923 0 0-.736-1.877-1.794-2.361 0 0-1.477-1.013.103-.993 0 0 1.606.129 2.49 1.664 1.413 2.49 3.781 1.774 4.703 1.348.148-1.032.568-1.748 1.032-2.174-3.606-.4-7.245-.923-7.245-7.129 0-1.774.49-2.665 1.523-3.8-.168-.419-.716-2.148.168-4.381 1.348-.419 4.452 1.742 4.452 1.742 1.29-.361 2.677-.548 4.052-.548s2.761.187 4.052.548c0 0 3.103-2.168 4.452-1.742.884 2.239.336 3.961.168 4.381 1.032 1.142 1.664 2.032 1.664 3.8 0 6.226-3.8 6.723-7.406 7.129.594.51 1.097 1.477 1.097 2.993 0 2.174-.019 4.865-.019 5.394 0 .419.297.929 1.116.781 6.452-2.142 10.826-8.264 10.826-15.419C32.001 6.794 24.743 0 15.795 0zM6.271 22.252c-.084.064-.064.213.045.335.103.103.252.148.335.065.084-.065.064-.213-.045-.336-.103-.103-.252-.148-.335-.064zm-.697-.523c-.045.084.019.187.148.252.103.064.232.045.277-.045.045-.084-.019-.187-.148-.252-.129-.039-.232-.019-.277.045zm2.091 2.297c-.103.084-.064.277.084.4.148.148.336.168.419.065.084-.084.045-.277-.084-.4-.142-.148-.335-.168-.419-.065zm-.736-.949c-.103.064-.103.232 0 .381s.277.213.361.148c.103-.084.103-.252 0-.4-.09-.148-.258-.213-.361-.129z"/>
</symbol>
<symbol id="icon-facebook-icon" viewBox="0 0 32 32">
<path d="m23.317 17.688.873-5.691h-5.461V8.304c0-1.557.763-3.075 3.209-3.075h2.483V.384S22.168 0 20.014 0c-4.497 0-7.436 2.726-7.436 7.66v4.337H7.579v5.691h4.999v13.758h6.152V17.688h4.587z"/>
</symbol>
<symbol id="icon-instagram-icon" viewBox="0 0 32 32">
<path d="M15.25 7.427c-4.327 0-7.816 3.49-7.816 7.816s3.49 7.816 7.816 7.816 7.816-3.49 7.816-7.816a7.804 7.804 0 0 0-7.816-7.816zm0 12.898c-2.796 0-5.082-2.279-5.082-5.082s2.279-5.082 5.082-5.082 5.082 2.279 5.082 5.082a5.091 5.091 0 0 1-5.082 5.082zm9.959-13.218a1.818 1.818 0 0 1-1.823 1.823 1.823 1.823 0 1 1 1.823-1.823zm5.177 1.85c-.116-2.442-.673-4.605-2.463-6.388C26.141.787 23.978.229 21.535.106c-2.517-.143-10.061-.143-12.578 0-2.435.116-4.599.673-6.388 2.456S.229 6.508.106 8.95c-.143 2.517-.143 10.061 0 12.578.116 2.442.673 4.606 2.463 6.388s3.946 2.34 6.388 2.463c2.517.143 10.061.143 12.578 0 2.442-.116 4.605-.674 6.388-2.463 1.782-1.782 2.34-3.946 2.463-6.388.143-2.517.143-10.054 0-12.571zM27.134 24.23a5.146 5.146 0 0 1-2.898 2.898c-2.007.796-6.769.612-8.986.612s-6.986.177-8.986-.612a5.146 5.146 0 0 1-2.898-2.898c-.796-2.007-.612-6.769-.612-8.986s-.177-6.986.612-8.986A5.146 5.146 0 0 1 6.264 3.36c2.007-.796 6.769-.612 8.986-.612s6.986-.177 8.986.612a5.146 5.146 0 0 1 2.898 2.898c.796 2.007.612 6.769.612 8.986s.184 6.986-.612 8.986z"/>
</symbol>
</defs>
</svg>