<svg aria-hidden="true" style="position: absolute; width: 0; height: 0; overflow: hidden;" version="1.1" xmlns="http://www.w3.org/2000/svg" xmlns:xlink="http://www.w3.org/1999/xlink">
<defs>
<symbol id="icon-arrow" viewBox="0 0 32 32">
<path fill="#392c72" style="fill: var(--color1, #392c72)" d="M14.333 16l3.837-4.177c0.327-0.33 0.327-0.865 0-1.197-0.327-0.328-0.858-0.328-1.183 0l-4.678 4.773c-0.327 0.332-0.327 0.867 0 1.195l4.678 4.773c0.325 0.332 0.857 0.33 1.183 0 0.327-0.328 0.327-0.863 0-1.195l-3.837-4.173zM16 0c-8.837 0-16 7.163-16 16 0 8.838 7.163 16 16 16s16-7.162 16-16c0-8.837-7.163-16-16-16zM16 29.923c-7.688 0-13.923-6.233-13.923-13.923s6.235-13.923 13.923-13.923c7.692 0 13.923 6.233 13.923 13.923s-6.232 13.923-13.923 13.923z"></path>
</symbol>
<symbol id="icon-lang-icon" viewBox="0 0 32 32">
<path fill="#ec1c24" style="fill: var(--color2, #ec1c24)" d="M13 8.88v1.69h18.983c-0.027-0.545-0.084-1.234-0.288-1.69z"></path>
<path fill="#e6e7e8" style="fill: var(--color3, #e6e7e8)" d="M30.8 7.19h-17.8v1.69h18.695c-0.203-0.63-0.505-1.205-0.895-1.69z"></path>
<path fill="#ec1c24" style="fill: var(--color2, #ec1c24)" d="M27 5.5h-14v1.69h17.8c-0.834-1.045-2.208-1.69-3.8-1.69z"></path>
<path fill="#e6e7e8" style="fill: var(--color3, #e6e7e8)" d="M31.983 10.57h-18.983v1.69h19v-1.127c0-0.101-0.007-0.198-0.009-0.297-0.002-0.027-0.005-0.097-0.008-0.267z"></path>
<path fill="#ec1c24" style="fill: var(--color2, #ec1c24)" d="M13 13.95h19v-1.69h-19v1.69z"></path>
<path fill="#e6e7e8" style="fill: var(--color3, #e6e7e8)" d="M13 15.64h19v-1.69h-19v1.69z"></path>
<path fill="#ec1c24" style="fill: var(--color2, #ec1c24)" d="M13 15.64h19v1.69h-19v-1.69z"></path>
<path fill="#e6e7e8" style="fill: var(--color3, #e6e7e8)" d="M0 17.33v1.69h32v-1.69h-32z"></path>
<path fill="#ec1c24" style="fill: var(--color2, #ec1c24)" d="M0 19.020h32v1.69h-32v-1.69z"></path>
<path fill="#e6e7e8" style="fill: var(--color3, #e6e7e8)" d="M0.003 21.75c0 0-0.004 0.409 0.007 0.65h31.98c0.014-0.247 0.008-0.65 0.008-0.65l0.002-1.040h-32l0.003 1.040z"></path>
<path fill="#ec1c24" style="fill: var(--color2, #ec1c24)" d="M5 27.5h22c1.596 0 2.923-0.58 3.83-1.72h-29.665c0.936 1.165 2.288 1.72 3.832 1.72z"></path>
<path fill="#e6e7e8" style="fill: var(--color3, #e6e7e8)" d="M1.167 25.78h29.665c0.395-0.502 0.691-1.076 0.87-1.69h-31.4c0.183 0.612 0.477 1.185 0.868 1.69z"></path>
<path fill="#ec1c24" style="fill: var(--color2, #ec1c24)" d="M0.3 24.090h31.4c0.164-0.55 0.261-1.117 0.29-1.69h-31.98c0.050 0.578 0.096 1.015 0.29 1.69z"></path>
<path fill="#176496" style="fill: var(--color4, #176496)" d="M13 5.5h-8c-3.313 0-5 2.463-5 5.5v6.33h13v-11.83z"></path>
<path fill="#fff" style="fill: var(--color5, #fff)" d="M1.399 8.488l0.272-0.209 0.272 0.209-0.105-0.336 0.27-0.205h-0.334l-0.103-0.338-0.103 0.338h-0.334l0.272 0.205-0.106 0.336zM3.196 8.488l0.272-0.209 0.272 0.209-0.105-0.336 0.27-0.205h-0.333l-0.103-0.338-0.103 0.338h-0.334l0.272 0.205-0.106 0.336zM5.179 8.488l0.271-0.209 0.272 0.209-0.106-0.336 0.27-0.205h-0.332l-0.105-0.338-0.104 0.338h-0.332l0.269 0.205-0.105 0.336zM7.147 8.488l0.271-0.209 0.272 0.209-0.105-0.336 0.27-0.205h-0.335l-0.102-0.338-0.103 0.338h-0.334l0.271 0.205-0.106 0.336zM9.122 8.488l0.272-0.209 0.271 0.209-0.105-0.336 0.271-0.205h-0.335l-0.103-0.338-0.103 0.338h-0.334l0.27 0.205-0.105 0.336zM2.356 9.366l0.272-0.209 0.272 0.209-0.104-0.335 0.27-0.206h-0.334l-0.103-0.337-0.102 0.337h-0.335l0.271 0.206-0.105 0.335zM4.153 9.366l0.271-0.209 0.271 0.209-0.105-0.335 0.27-0.206h-0.336l-0.101-0.337-0.104 0.337h-0.333l0.271 0.206-0.105 0.335zM6.136 9.366l0.271-0.209 0.271 0.209-0.105-0.335 0.271-0.206h-0.333l-0.104-0.337-0.104 0.337h-0.334l0.271 0.206-0.104 0.335zM8.103 9.366l0.272-0.209 0.272 0.209-0.107-0.335 0.271-0.206h-0.334l-0.104-0.337-0.102 0.337h-0.334l0.271 0.206-0.105 0.335zM10.080 9.366l0.27-0.209 0.271 0.209-0.106-0.335 0.271-0.206h-0.333l-0.104-0.337-0.102 0.337h-0.334l0.271 0.206-0.103 0.335zM11.194 8.488l0.271-0.209 0.272 0.209-0.105-0.336 0.27-0.205h-0.332l-0.105-0.338-0.103 0.338h-0.336l0.274 0.205-0.105 0.336zM1.373 15.51l0.272-0.207 0.272 0.207-0.105-0.333 0.27-0.206-0.333 0.001-0.104-0.337-0.102 0.337-0.335-0.001 0.27 0.206-0.105 0.333zM3.17 15.51l0.272-0.207 0.272 0.207-0.106-0.333 0.27-0.206-0.333 0.001-0.104-0.337-0.103 0.337-0.333-0.001 0.27 0.206-0.105 0.333zM5.153 15.51l0.271-0.207 0.272 0.207-0.106-0.333 0.27-0.206-0.335 0.001-0.101-0.337-0.103 0.337-0.333-0.001 0.271 0.206-0.105 0.333zM7.121 15.51l0.271-0.207 0.271 0.207-0.104-0.333 0.269-0.206-0.334 0.001-0.103-0.337-0.103 0.337-0.333-0.001 0.27 0.206-0.104 0.333zM9.095 15.51l0.272-0.207 0.272 0.207-0.104-0.333 0.268-0.206-0.334 0.001-0.104-0.337-0.102 0.337-0.334-0.001 0.27 0.206-0.105 0.333zM11.167 15.51l0.271-0.207 0.272 0.207-0.105-0.333 0.271-0.206-0.335 0.001-0.102-0.337-0.103 0.337-0.335-0.001 0.272 0.206-0.105 0.333zM1.399 10.244l0.272-0.209 0.272 0.209-0.105-0.336 0.27-0.206-0.334 0.001-0.103-0.338-0.103 0.338-0.334-0.001 0.272 0.206-0.106 0.336zM3.196 10.244l0.272-0.209 0.272 0.209-0.105-0.336 0.27-0.206-0.333 0.001-0.103-0.338-0.103 0.338-0.334-0.001 0.272 0.206-0.106 0.336zM5.179 10.244l0.271-0.209 0.272 0.209-0.106-0.336 0.27-0.206-0.332 0.001-0.105-0.338-0.104 0.338-0.332-0.001 0.269 0.206-0.105 0.336zM7.147 10.244l0.271-0.209 0.272 0.209-0.105-0.336 0.27-0.206-0.335 0.001-0.102-0.338-0.103 0.338-0.334-0.001 0.271 0.206-0.106 0.336zM9.122 10.244l0.272-0.209 0.271 0.209-0.105-0.336 0.271-0.206-0.335 0.001-0.103-0.338-0.103 0.338-0.334-0.001 0.27 0.206-0.105 0.336zM2.356 11.122l0.272-0.209 0.272 0.209-0.104-0.335 0.27-0.207h-0.334l-0.103-0.336-0.102 0.336h-0.335l0.271 0.207-0.105 0.335zM4.153 11.122l0.271-0.209 0.271 0.209-0.105-0.335 0.27-0.207h-0.336l-0.101-0.336-0.104 0.336h-0.333l0.271 0.207-0.105 0.335zM6.136 11.122l0.271-0.209 0.271 0.209-0.105-0.335 0.271-0.207h-0.333l-0.104-0.336-0.104 0.336h-0.334l0.271 0.207-0.104 0.335zM8.103 11.122l0.272-0.209 0.272 0.209-0.107-0.335 0.271-0.207h-0.334l-0.104-0.336-0.102 0.336h-0.334l0.271 0.207-0.105 0.335zM10.080 11.122l0.27-0.209 0.271 0.209-0.106-0.335 0.271-0.207h-0.333l-0.104-0.336-0.102 0.336h-0.334l0.271 0.207-0.103 0.335zM11.194 10.244l0.271-0.209 0.272 0.209-0.105-0.336 0.27-0.206-0.332 0.001-0.105-0.338-0.103 0.338-0.336-0.001 0.274 0.206-0.105 0.336zM1.373 12l0.272-0.209 0.272 0.209-0.105-0.335 0.27-0.206-0.334 0.001-0.103-0.338-0.102 0.338-0.335-0.001 0.27 0.206-0.105 0.335zM3.17 12l0.272-0.209 0.272 0.209-0.106-0.335 0.27-0.206-0.333 0.001-0.104-0.338-0.103 0.338-0.333-0.001 0.269 0.206-0.104 0.335zM5.153 12l0.271-0.209 0.271 0.209-0.105-0.335 0.27-0.206-0.335 0.001-0.101-0.338-0.103 0.338-0.333-0.001 0.271 0.206-0.105 0.335zM7.121 12l0.271-0.209 0.272 0.209-0.104-0.335 0.269-0.206-0.334 0.001-0.103-0.338-0.103 0.338-0.333-0.001 0.27 0.206-0.104 0.335zM9.095 12l0.272-0.209 0.271 0.209-0.104-0.335 0.268-0.206-0.334 0.001-0.103-0.338-0.102 0.338-0.334-0.001 0.27 0.206-0.105 0.335zM2.329 12.878l0.272-0.208 0.272 0.208-0.104-0.333 0.269-0.207h-0.334l-0.103-0.338-0.103 0.338h-0.334l0.271 0.207-0.105 0.333zM4.127 12.878l0.271-0.208 0.271 0.208-0.105-0.333 0.27-0.207h-0.335l-0.103-0.338-0.103 0.338h-0.334l0.271 0.207-0.105 0.333zM6.11 12.878l0.271-0.208 0.272 0.208-0.107-0.333 0.272-0.207h-0.333l-0.104-0.338-0.103 0.338h-0.334l0.271 0.207-0.104 0.333zM8.075 12.878l0.273-0.208 0.272 0.208-0.105-0.333 0.27-0.207h-0.334l-0.104-0.338-0.102 0.338h-0.334l0.271 0.207-0.107 0.333zM10.050 12.878l0.273-0.208 0.272 0.208-0.105-0.333 0.271-0.207h-0.334l-0.104-0.338-0.103 0.338h-0.334l0.271 0.207-0.107 0.333zM11.167 12l0.271-0.209 0.271 0.209-0.105-0.335 0.271-0.206-0.335 0.001-0.102-0.338-0.103 0.338-0.335-0.001 0.272 0.206-0.105 0.335zM1.373 13.757l0.272-0.207 0.272 0.207-0.105-0.335 0.27-0.206-0.334 0.001-0.103-0.338-0.102 0.338-0.335-0.001 0.27 0.206-0.105 0.335zM3.17 13.757l0.272-0.207 0.272 0.207-0.106-0.335 0.27-0.206-0.333 0.001-0.104-0.338-0.103 0.338-0.333-0.001 0.269 0.206-0.104 0.335zM5.153 13.757l0.271-0.207 0.271 0.207-0.105-0.335 0.27-0.206-0.335 0.001-0.101-0.338-0.103 0.338-0.333-0.001 0.271 0.206-0.105 0.335zM7.121 13.757l0.271-0.207 0.272 0.207-0.104-0.335 0.269-0.206-0.334 0.001-0.103-0.338-0.103 0.338-0.333-0.001 0.27 0.206-0.104 0.335zM9.095 13.757l0.272-0.207 0.271 0.207-0.104-0.335 0.268-0.206-0.334 0.001-0.103-0.338-0.102 0.338-0.334-0.001 0.27 0.206-0.105 0.335zM2.329 14.635l0.272-0.209 0.272 0.209-0.104-0.336 0.269-0.204h-0.334l-0.103-0.338-0.103 0.338h-0.334l0.271 0.204-0.105 0.336zM4.127 14.635l0.271-0.209 0.271 0.209-0.105-0.336 0.27-0.204h-0.335l-0.103-0.338-0.103 0.338h-0.334l0.271 0.204-0.105 0.336zM6.11 14.635l0.271-0.209 0.272 0.209-0.107-0.336 0.272-0.204h-0.333l-0.104-0.338-0.103 0.338h-0.334l0.271 0.204-0.104 0.336zM8.075 14.635l0.273-0.209 0.272 0.209-0.105-0.336 0.27-0.204h-0.334l-0.104-0.338-0.102 0.338h-0.334l0.271 0.204-0.107 0.336zM10.050 14.635l0.273-0.209 0.272 0.209-0.105-0.336 0.271-0.204h-0.334l-0.104-0.338-0.103 0.338h-0.334l0.271 0.204-0.107 0.336zM11.167 13.757l0.271-0.207 0.271 0.207-0.105-0.335 0.271-0.206-0.335 0.001-0.102-0.338-0.103 0.338-0.335-0.001 0.272 0.206-0.105 0.335z"></path>
</symbol>
<symbol id="icon-set" viewBox="0 0 32 32">
<path  d="M8 6.021v-3.021c0-1.654-1.346-3-3-3s-3 1.346-3 3v3.021c-1.208 0.915-2 2.348-2 3.979s0.792 3.064 2 3.977v15.023c0 1.654 1.346 3 3 3s3-1.346 3-3v-15.023c1.208-0.912 2-2.346 2-3.977s-0.792-3.064-2-3.979zM4 3c0-0.553 0.447-1 1-1s1 0.447 1 1v2.1c-0.323-0.065-0.657-0.1-1-0.1s-0.677 0.035-1 0.1v-2.1zM6 29c0 0.553-0.447 1-1 1s-1-0.447-1-1v-14.102c0.323 0.067 0.657 0.102 1 0.102s0.677-0.035 1-0.102v14.102zM7.865 10.84c-0.016 0.053-0.030 0.105-0.049 0.158-0.095 0.264-0.217 0.514-0.378 0.736-0.004 0.006-0.010 0.010-0.014 0.016-0.174 0.238-0.381 0.449-0.616 0.627-0.004 0.004-0.007 0.006-0.010 0.008-0.241 0.182-0.51 0.328-0.799 0.43-0.313 0.113-0.646 0.185-0.999 0.185s-0.686-0.072-1-0.186c-0.289-0.102-0.558-0.248-0.799-0.43-0.003-0.002-0.006-0.004-0.010-0.008-0.235-0.178-0.442-0.389-0.616-0.627-0.004-0.006-0.010-0.010-0.014-0.016-0.161-0.223-0.283-0.473-0.378-0.736-0.019-0.053-0.033-0.105-0.049-0.158-0.079-0.267-0.134-0.546-0.134-0.839 0-0.295 0.055-0.574 0.135-0.842 0.016-0.053 0.030-0.105 0.049-0.156 0.094-0.264 0.216-0.514 0.378-0.738 0.004-0.006 0.010-0.010 0.014-0.016 0.174-0.236 0.381-0.449 0.616-0.627 0.004-0.002 0.007-0.006 0.010-0.008 0.24-0.179 0.509-0.326 0.798-0.429 0.314-0.112 0.647-0.184 1-0.184s0.686 0.072 1 0.184c0.289 0.104 0.558 0.25 0.799 0.43 0.003 0.002 0.006 0.006 0.010 0.008 0.235 0.178 0.442 0.391 0.616 0.627 0.004 0.006 0.010 0.010 0.014 0.016 0.161 0.223 0.283 0.473 0.377 0.737 0.019 0.051 0.034 0.103 0.049 0.156 0.080 0.268 0.135 0.547 0.135 0.842 0 0.293-0.055 0.572-0.135 0.84zM30 6.021v-3.021c0-1.654-1.346-3-3-3s-3 1.346-3 3v3.021c-1.209 0.915-2 2.348-2 3.979s0.791 3.064 2 3.977v15.023c0 1.654 1.346 3 3 3s3-1.346 3-3v-15.023c1.207-0.912 2-2.346 2-3.977s-0.793-3.064-2-3.979zM26 3c0-0.553 0.447-1 1-1s1 0.447 1 1v2.1c-0.324-0.065-0.658-0.1-1-0.1-0.344 0-0.678 0.035-1 0.1v-2.1zM28 29c0 0.553-0.447 1-1 1s-1-0.447-1-1v-14.102c0.322 0.067 0.656 0.102 1 0.102 0.342 0 0.676-0.035 1-0.102v14.102zM29.865 10.84c-0.016 0.053-0.031 0.105-0.049 0.158-0.096 0.264-0.217 0.514-0.379 0.736-0.004 0.006-0.010 0.010-0.014 0.016-0.174 0.238-0.381 0.449-0.615 0.627-0.004 0.004-0.008 0.006-0.010 0.008-0.242 0.182-0.51 0.328-0.799 0.43-0.313 0.113-0.647 0.185-0.999 0.185-0.354 0-0.686-0.072-1-0.186-0.289-0.102-0.559-0.248-0.799-0.43-0.004-0.002-0.006-0.004-0.010-0.008-0.236-0.178-0.443-0.389-0.617-0.627-0.004-0.006-0.010-0.010-0.014-0.016-0.16-0.223-0.283-0.473-0.377-0.736-0.020-0.053-0.033-0.105-0.049-0.158-0.079-0.267-0.134-0.546-0.134-0.839 0-0.295 0.055-0.574 0.135-0.842 0.016-0.053 0.029-0.105 0.049-0.156 0.094-0.264 0.217-0.514 0.377-0.738 0.004-0.006 0.010-0.010 0.014-0.016 0.174-0.236 0.381-0.449 0.617-0.627 0.004-0.002 0.006-0.006 0.010-0.008 0.24-0.18 0.51-0.326 0.799-0.43 0.313-0.111 0.645-0.183 0.999-0.183 0.352 0 0.686 0.072 1 0.184 0.289 0.104 0.557 0.25 0.799 0.43 0.002 0.002 0.006 0.006 0.010 0.008 0.234 0.178 0.441 0.391 0.615 0.627 0.004 0.006 0.010 0.010 0.014 0.016 0.162 0.225 0.283 0.475 0.379 0.738 0.018 0.051 0.033 0.104 0.049 0.156 0.079 0.267 0.134 0.546 0.134 0.841 0 0.293-0.055 0.572-0.135 0.84zM19 18.021v-15.021c0-1.654-1.346-3-3-3s-3 1.346-3 3v15.021c-1.208 0.914-2 2.348-2 3.979s0.792 3.064 2 3.977v3.023c0 1.654 1.346 3 3 3s3-1.346 3-3v-3.023c1.207-0.912 2-2.346 2-3.977s-0.793-3.064-2-3.979zM15 3c0-0.553 0.447-1 1-1s1 0.447 1 1v14.1c-0.324-0.064-0.658-0.1-1-0.1s-0.677 0.035-1 0.1v-14.1zM17 29c0 0.553-0.447 1-1 1s-1-0.447-1-1v-2.102c0.323 0.067 0.657 0.102 1 0.102s0.676-0.035 1-0.102v2.102zM18.865 22.84c-0.016 0.053-0.031 0.105-0.049 0.158-0.096 0.264-0.217 0.514-0.379 0.736-0.004 0.006-0.010 0.010-0.014 0.016-0.174 0.238-0.381 0.449-0.615 0.627-0.004 0.004-0.008 0.006-0.010 0.008-0.242 0.182-0.51 0.328-0.799 0.43-0.313 0.113-0.647 0.185-0.999 0.185s-0.686-0.072-1-0.186c-0.289-0.102-0.558-0.248-0.799-0.43-0.003-0.002-0.006-0.004-0.010-0.008-0.235-0.178-0.442-0.389-0.616-0.627-0.004-0.006-0.010-0.010-0.014-0.016-0.161-0.223-0.283-0.473-0.378-0.736-0.019-0.053-0.033-0.105-0.049-0.158-0.079-0.267-0.134-0.546-0.134-0.839 0-0.295 0.055-0.574 0.135-0.842 0.016-0.053 0.030-0.105 0.049-0.156 0.095-0.264 0.217-0.514 0.378-0.738 0.004-0.006 0.010-0.010 0.014-0.016 0.174-0.236 0.381-0.449 0.616-0.627 0.004-0.002 0.007-0.006 0.010-0.008 0.241-0.18 0.51-0.326 0.799-0.43 0.313-0.111 0.646-0.183 0.999-0.183s0.686 0.072 1 0.184c0.289 0.104 0.557 0.25 0.799 0.43 0.002 0.002 0.006 0.006 0.010 0.008 0.234 0.178 0.441 0.391 0.615 0.627 0.004 0.006 0.010 0.010 0.014 0.016 0.162 0.225 0.283 0.475 0.379 0.738 0.018 0.051 0.033 0.104 0.049 0.156 0.079 0.267 0.134 0.546 0.134 0.841 0 0.293-0.055 0.572-0.135 0.84z"></path>
</symbol>
<symbol id="icon-search" viewBox="0 0 32 32">
<path  d="M20 0.005c-6.627 0-12 5.373-12 12 0 2.026 0.507 3.933 1.395 5.608l-8.344 8.342 0.007 0.006c-0.652 0.641-1.058 1.529-1.058 2.516 0 1.949 1.58 3.529 3.529 3.529 0.985 0 1.874-0.406 2.515-1.059l-0.002-0.002 8.341-8.34c1.676 0.891 3.586 1.4 5.617 1.4 6.627 0 12-5.373 12-12s-5.373-12-12-12zM4.795 29.697c-0.322 0.334-0.768 0.543-1.266 0.543-0.975 0-1.765-0.789-1.765-1.764 0-0.498 0.21-0.943 0.543-1.266l-0.009-0.008 8.066-8.066c0.705 0.951 1.545 1.791 2.494 2.498l-8.063 8.063zM20 22.006c-5.522 0-10-4.479-10-10s4.478-10 10-10c5.521 0 10 4.478 10 10s-4.479 10-10 10zM20 5.005c0.275 0 0.5 0.224 0.5 0.5s-0.225 0.5-0.5 0.5c-3.314 0-6 2.687-6 6 0 0.276-0.224 0.5-0.5 0.5s-0.5-0.224-0.5-0.5c0-3.866 3.133-7 7-7z"></path>
</symbol>
<symbol id="icon-change-theme" viewBox="0 0 32 32">
<path  d="M16 0c-6.076 0-11 4.924-11 11 0 4.031 3.688 8.303 5.031 12.055 2.003 5.595 1.781 8.945 5.969 8.945 4.25 0 3.965-3.334 5.969-8.922 1.347-3.76 5.031-8.078 5.031-12.078 0-6.076-4.926-11-11-11zM18.592 27.176l-4.958 0.619c-0.177-0.512-0.367-1.111-0.598-1.893-0.003-0.010-0.007-0.021-0.009-0.031l6.188-0.773c-0.088 0.295-0.182 0.605-0.264 0.883-0.131 0.449-0.248 0.839-0.359 1.195zM12.736 24.908c-0.182-0.602-0.387-1.236-0.615-1.908h7.766c-0.123 0.359-0.246 0.719-0.352 1.059l-6.799 0.849zM16 30c-1.013 0-1.479-0.117-1.997-1.25l4.238-0.531c-0.614 1.654-1.061 1.781-2.241 1.781zM20.672 21h-9.333c-0.498-1.080-1.096-2.16-1.686-3.217-1.305-2.335-2.653-4.75-2.653-6.783 0-4.963 4.037-9 9-9s9 4.037 9 9c0 2.018-1.35 4.446-2.656 6.795-0.584 1.053-1.178 2.131-1.672 3.205zM16 5c0.275 0 0.5 0.224 0.5 0.5s-0.224 0.5-0.5 0.5c-2.757 0-5 2.243-5 5 0 0.276-0.224 0.5-0.5 0.5s-0.5-0.224-0.5-0.5c0-3.309 2.691-6 6-6z"></path>
</symbol>
<symbol id="icon-star" viewBox="0 0 32 32">
<path  d="M31.881 12.557c-0.277-0.799-0.988-1.384-1.844-1.511l-8.326-1.238-3.619-7.514c-0.381-0.789-1.196-1.294-2.092-1.294s-1.711 0.505-2.092 1.294l-3.619 7.514-8.327 1.238c-0.855 0.127-1.566 0.712-1.842 1.511-0.275 0.801-0.067 1.683 0.537 2.285l6.102 6.092-1.415 8.451c-0.144 0.851 0.225 1.705 0.948 2.203 0.397 0.273 0.864 0.412 1.331 0.412 0.384 0 0.769-0.094 1.118-0.281l7.259-3.908 7.26 3.908c0.349 0.187 0.734 0.281 1.117 0.281 0.467 0 0.934-0.139 1.332-0.412 0.723-0.498 1.090-1.352 0.947-2.203l-1.416-8.451 6.104-6.092c0.603-0.603 0.81-1.485 0.537-2.285zM23.588 19.363c-0.512 0.51-0.744 1.229-0.627 1.934l1.416 8.451-7.26-3.906c-0.348-0.188-0.732-0.281-1.118-0.281-0.384 0-0.769 0.094-1.117 0.281l-7.26 3.906 1.416-8.451c0.118-0.705-0.114-1.424-0.626-1.934l-6.102-6.092 8.326-1.24c0.761-0.113 1.416-0.589 1.743-1.268l3.621-7.512 3.62 7.513c0.328 0.679 0.982 1.154 1.742 1.268l8.328 1.24-6.102 6.091z"></path>
</symbol>
<symbol id="icon-pen" viewBox="0 0 32 32">
<path  d="M29.395 2.58c-1.645-1.643-3.811-2.58-5.946-2.58-1.801 0-3.459 0.668-4.67 1.877l-4.867 4.904c-0.015 0.014-0.032 0.023-0.047 0.038-0.008 0.008-0.013 0.019-0.021 0.026l0.002 0.002-10.329 10.409c-0.476 0.473-0.821 1.062-1.013 1.705l-2.349 8.508c-0.002 0.023-0.155 0.691-0.155 1.031 0 1.932 1.569 3.5 3.504 3.5 0.385 0 1.13-0.184 1.157-0.188l8.478-2.229c0.644-0.191 1.229-0.539 1.705-1.016l15.263-15.383c2.776-2.778 2.463-7.434-0.712-10.604zM16.014 23.795c-0.082-0.902-0.337-1.787-0.719-2.627l9.455-9.454c0.578 1.826 0.281 3.736-0.986 5.004-0.008 0.008-0.018 0.013-0.025 0.021l0.014 0.013-7.728 7.79c0-0.249 0.012-0.493-0.011-0.747zM14.793 20.256c-0.373-0.613-0.797-1.205-1.322-1.729-0.611-0.611-1.312-1.090-2.044-1.492l9.532-9.532c0.748 0.332 1.465 0.805 2.098 1.438 0.541 0.539 0.959 1.143 1.281 1.771l-9.545 9.544zM10.486 16.562c-0.926-0.373-1.896-0.586-2.868-0.599l7.703-7.762c1.179-1.15 2.896-1.481 4.587-1.062l-9.422 9.423zM4.167 29.873c-0.109 0.025-0.448 0.111-0.678 0.127-0.822-0.010-1.489-0.678-1.489-1.5 0.012-0.168 0.079-0.457 0.102-0.562l1.053-3.814c1.143-0.031 2.373 0.414 3.34 1.383 0.982 0.98 1.444 2.234 1.394 3.391l-3.722 0.975zM8.874 28.637c-0.024-1.342-0.57-2.738-1.672-3.838-1.042-1.043-2.406-1.645-3.766-1.699l0.996-3.607c0.072-0.24 0.215-0.477 0.391-0.684 2.006-1.436 5.091-1.012 7.234 1.133 2.267 2.266 2.617 5.586 0.871 7.568-0.116 0.061-0.233 0.119-0.359 0.156l-3.695 0.971zM28.691 11.772l-1.684 1.697c0-0.226 0.027-0.443 0.006-0.674-0.176-1.935-1.078-3.806-2.543-5.269-1.629-1.63-3.789-2.565-5.928-2.571l1.656-1.67c0.829-0.827 1.986-1.285 3.251-1.285 1.609 0 3.262 0.728 4.533 1.995 1.193 1.191 1.904 2.671 2.006 4.168 0.094 1.397-0.367 2.678-1.297 3.609z"></path>
</symbol>
<symbol id="icon-page" viewBox="0 0 32 32">
<path  d="M31.414 7.585l-6-6c-0.375-0.375-0.885-0.585-1.414-0.585h-21c-1.654 0-3 1.345-3 3v24c0 1.654 1.346 3 3 3h26c1.654 0 3-1.346 3-3v-19c0-0.531-0.211-1.040-0.586-1.415zM30 28c0 0.553-0.447 1-1 1h-26c-0.553 0-1-0.447-1-1v-24c0-0.553 0.447-1 1-1h20v4h-0.002c0 1.657 1.344 3 3 3h4.002v18zM26.998 9h-1c-1.102 0-2-0.897-2-2h0.002v-4l6 6h-3.002zM15.5 8c-0.276 0-0.5-0.223-0.5-0.5s0.224-0.5 0.5-0.5h5c0.275 0 0.5 0.224 0.5 0.5s-0.225 0.5-0.5 0.5h-5zM15.5 11c-0.276 0-0.5-0.224-0.5-0.5s0.224-0.5 0.5-0.5h5c0.275 0 0.5 0.224 0.5 0.5s-0.225 0.5-0.5 0.5h-5zM15 13.5c0-0.277 0.224-0.5 0.5-0.5h12c0.275 0 0.5 0.224 0.5 0.5s-0.225 0.5-0.5 0.5h-12c-0.276 0-0.5-0.224-0.5-0.5zM27.5 19c0.275 0 0.5 0.223 0.5 0.5 0 0.275-0.225 0.5-0.5 0.5h-23c-0.276 0-0.5-0.225-0.5-0.5 0-0.277 0.224-0.5 0.5-0.5h23zM27.5 22c0.275 0 0.5 0.223 0.5 0.5 0 0.275-0.225 0.5-0.5 0.5h-23c-0.276 0-0.5-0.225-0.5-0.5 0-0.277 0.224-0.5 0.5-0.5h23zM27.5 25c0.275 0 0.5 0.223 0.5 0.5 0 0.275-0.225 0.5-0.5 0.5h-23c-0.276 0-0.5-0.225-0.5-0.5 0-0.277 0.224-0.5 0.5-0.5h23zM27.5 16c0.275 0 0.5 0.224 0.5 0.5s-0.225 0.5-0.5 0.5h-23c-0.276 0-0.5-0.223-0.5-0.5s0.224-0.5 0.5-0.5h23zM5 14h7c0.553 0 1-0.447 1-1v-6c0-0.553-0.447-1-1-1h-7c-0.553 0-1 0.447-1 1v6c0 0.552 0.447 1 1 1zM6 8h5v4h-5v-4z"></path>
</symbol>
<symbol id="icon-lab" viewBox="0 0 32 32">
<path  d="M20.682 3.732c-0.473-0.472-1.1-0.732-1.768-0.732s-1.295 0.26-1.77 0.733l-1.41 1.412c-0.473 0.472-0.734 1.1-0.734 1.769 0 0.471 0.129 0.922 0.371 1.313l-13.577 5.439c-0.908 0.399-1.559 1.218-1.742 2.189-0.185 0.977 0.125 1.979 0.834 2.687l12.72 12.58c0.548 0.548 1.276 0.859 2.045 0.877 0.018 0.001 0.060 0.001 0.078 0.001 0.202 0 0.407-0.021 0.61-0.062 0.994-0.206 1.808-0.893 2.177-1.828l5.342-13.376c0.402 0.265 0.875 0.407 1.367 0.407 0.67 0 1.297-0.261 1.768-0.733l1.407-1.408c0.477-0.474 0.738-1.103 0.738-1.773s-0.262-1.3-0.732-1.768l-7.724-7.727zM16.659 29.367c-0.124 0.313-0.397 0.544-0.727 0.612-0.076 0.016-0.153 0.022-0.229 0.021-0.254-0.006-0.499-0.108-0.682-0.292l-12.728-12.588c-0.234-0.233-0.337-0.567-0.275-0.893 0.061-0.324 0.279-0.598 0.582-0.73l6.217-2.49c4.189 1.393 8.379 0.051 12.57 4.522l-4.728 11.838zM26.992 13.58l-1.414 1.413c-0.195 0.196-0.512 0.196-0.707 0l-1.768-1.767-1.432 3.589 0.119-0.303c-3.010-3.005-6.069-3.384-8.829-3.723-0.887-0.109-1.747-0.223-2.592-0.405l8.491-3.401-1.715-1.715c-0.195-0.195-0.195-0.512 0-0.707l1.414-1.415c0.195-0.195 0.512-0.195 0.707 0l7.725 7.727c0.198 0.195 0.198 0.512 0.001 0.707zM16.5 21c1.378 0 2.5-1.121 2.5-2.5s-1.121-2.5-2.5-2.5c-1.379 0-2.5 1.121-2.5 2.5s1.122 2.5 2.5 2.5zM16.5 17c0.828 0 1.5 0.672 1.5 1.5s-0.672 1.5-1.5 1.5c-0.829 0-1.5-0.672-1.5-1.5s0.671-1.5 1.5-1.5zM29.5 0c-1.379 0-2.5 1.121-2.5 2.5s1.121 2.5 2.5 2.5c1.379 0 2.5-1.121 2.5-2.5s-1.121-2.5-2.5-2.5zM29.5 4c-0.828 0-1.5-0.672-1.5-1.5s0.672-1.5 1.5-1.5c0.828 0 1.5 0.672 1.5 1.5s-0.672 1.5-1.5 1.5zM8 17c0 1.103 0.897 2 2 2s2-0.897 2-2c0-1.103-0.897-2-2-2s-2 0.897-2 2zM10 16c0.552 0 1 0.447 1 1s-0.448 1-1 1c-0.552 0-1-0.447-1-1s0.448-1 1-1zM12 23c0-0.552 0.448-1 1-1s1 0.448 1 1c0 0.552-0.448 1-1 1s-1-0.448-1-1zM28 8c0-0.552 0.448-1 1-1s1 0.448 1 1c0 0.552-0.448 1-1 1s-1-0.448-1-1z"></path>
</symbol>
<symbol id="icon-wallet" viewBox="0 0 32 32">
<path  d="M16 20c0-1.105 0.895-2 2-2s2 0.895 2 2c0 1.105-0.895 2-2 2s-2-0.895-2-2zM29.001 13c-0.001 0-0.001 0 0 0l-0.001-6v-3c0-1.657-1.344-3-3-3h-20.5c-3.033 0-5.5 2.468-5.5 5.5v20c0 3.032 2.467 5.5 5.5 5.5h18c3.032 0 5.5-2.468 5.5-5.5v-1.5c0 0 0 0 0.001 0 3.998-3.001 3.998-8.999 0-12zM5.5 3h20.5c0.551 0 1 0.448 1 1v6.184c-0.314-0.112-0.648-0.184-1-0.184h-0.001v-5c0-0.553-0.448-1-1-1h-21c-0.552 0-1 0.447-1 1v3.943c-0.617-0.631-0.999-1.491-0.999-2.443 0-1.933 1.566-3.5 3.5-3.5zM24.999 6h-21v-1h21v1zM24.999 7v1h-21v-1h21zM24.999 9v1h-19.499c-0.54 0-1.044-0.132-1.5-0.35v-0.65h20.999zM27 26.5c0 1.933-1.567 3.5-3.5 3.5h-18c-1.934 0-3.5-1.567-3.5-3.5v-15.761c0.951 0.787 2.171 1.261 3.5 1.261h20.5c0.551 0 1 0.448 1 1v2h-9c-2.762 0-5 2.238-5 5s2.239 5 5 5h9v1.5zM28.277 23h-10.277c-1.654 0-3-1.346-3-3s1.346-3 3-3h9c0.617-0.008 1.229-0.307 1.602-0.804 0.104-0.14 0.185-0.297 0.25-0.461 0.009-0.022 0.025-0.039 0.033-0.062 0.719 0.943 1.115 2.099 1.115 3.327 0 1.538-0.621 2.965-1.723 4z"></path>
</symbol>
<symbol id="icon-eye" viewBox="0 0 32 32">
<path  d="M31.965 15.776c-0.010-0.042-0.004-0.087-0.020-0.128-0.006-0.017-0.021-0.026-0.027-0.042-0.010-0.024-0.008-0.051-0.021-0.074-2.9-5.551-9.213-9.528-15.873-9.528s-12.973 3.971-15.875 9.521c-0.013 0.023-0.011 0.050-0.021 0.074-0.007 0.016-0.021 0.025-0.027 0.042-0.016 0.041-0.010 0.086-0.020 0.128-0.018 0.075-0.035 0.147-0.035 0.224s0.018 0.148 0.035 0.224c0.010 0.042 0.004 0.087 0.020 0.128 0.006 0.017 0.021 0.026 0.027 0.042 0.010 0.024 0.008 0.051 0.021 0.074 2.901 5.551 9.214 9.528 15.875 9.528s12.973-3.971 15.873-9.521c0.014-0.023 0.012-0.050 0.021-0.074 0.006-0.016 0.021-0.025 0.027-0.042 0.016-0.041 0.010-0.086 0.020-0.128 0.017-0.076 0.035-0.148 0.035-0.224s-0.018-0.149-0.035-0.224zM16.023 23.988c-5.615 0-11.112-3.191-13.851-7.995 2.754-4.81 8.243-7.99 13.851-7.99 5.613 0 11.111 3.192 13.85 7.995-2.754 4.811-8.242 7.99-13.85 7.99v0zM16.023 11.999c0.276 0 0.498 0.223 0.498 0.5 0 0.275-0.223 0.499-0.498 0.499v0.001c-1.654 0-2.999 1.345-2.999 2.997 0 0.276-0.224 0.5-0.499 0.5s-0.5-0.224-0.5-0.5c0-2.205 1.787-3.992 3.992-3.996 0.002 0 0.004-0.001 0.006-0.001v0zM16 9c-3.867 0-7 3.134-7 7s3.134 7 7 7c3.865 0 7-3.135 7-7 0-3.867-3.135-7-7-7zM16 22c-3.309 0-6-2.691-6-6s2.691-6 6-6c3.309 0 6 2.691 6 6s-2.691 6-6 6z"></path>
</symbol>
<symbol id="icon-log-out" viewBox="0 0 32 32">
<path  d="M22.004 0c-5.523 0-10 4.478-10 10 0 1.285 0.269 2.501 0.713 3.629l-12.149 12.148c-0.351 0.352-0.568 0.686-0.568 1.223v3c0 1.070 0.929 2 2 2h3c0.536 0 0.875-0.215 1.226-0.564l1.435-1.436h2.343c1.104 0 2-0.896 2-2v-2h2c1.104 0 2-0.896 2-2v-2.344l2.369-2.371c1.129 0.445 2.344 0.715 3.631 0.715 5.521 0 10-4.478 10-10s-4.479-10-10-10zM22.004 18c-1.48 0-2.852-0.43-4.041-1.132l-0.344 0.343-3.030 3.031c-0.375 0.375-0.586 0.883-0.586 1.414v2.344h-2c-1.104 0-2 0.895-2 2v2h-2.342c-0.53 0-1.039 0.211-1.414 0.586l-1.418 1.418-2.826-0.004-0.003-2.85 11.665-11.644c0 0 0 0.001 0.001 0.002l1.469-1.469c-0.702-1.189-1.132-2.56-1.132-4.040 0-4.418 3.583-8 8-8s8 3.582 8 8c0 4.418-3.581 8.001-7.999 8.001zM27.82 8.239c-1.121-1.562-2.486-2.925-4.055-4.054-0.255-0.185-0.585-0.231-0.882-0.127-1.389 0.489-2.34 1.439-2.826 2.828-0.037 0.104-0.055 0.212-0.055 0.319 0 0.199 0.062 0.396 0.182 0.563 1.125 1.564 2.488 2.928 4.053 4.053 0.256 0.184 0.584 0.231 0.881 0.128 1.391-0.486 2.342-1.438 2.83-2.828 0.037-0.104 0.055-0.212 0.055-0.319-0.001-0.199-0.064-0.396-0.183-0.563zM24.82 11.010c-1.478-1.063-2.765-2.35-3.82-3.793 0.387-1.103 1.111-1.827 2.182-2.221 1.479 1.065 2.764 2.349 3.816 3.811-0.391 1.095-1.113 1.815-2.178 2.203z"></path>
</symbol>
<symbol id="icon-lock" viewBox="0 0 32 32">
<path  d="M25 13v-4c0-4.971-4.029-9-9-9s-9 4.029-9 9v4c-1.657 0-3 1.343-3 3v7c0 4.971 4.029 9 9 9h6c4.971 0 9-4.029 9-9v-7c0-1.658-1.344-3-3-3zM9 9c0-3.866 3.134-7 7-7s7 3.134 7 7v4h-2v-3.998c0-2.762-2.238-5-5-5s-5 2.238-5 5v3.998h-2v-4zM20 9v4h-8v-4c0-2.209 1.791-4 4-4s4 1.791 4 4zM26 19v4c0 3.859-3.141 7-7 7h-6c-3.859 0-7-3.141-7-7v-7c0-0.552 0.448-1 1-1 0.667 0 1.333 0 2 0h14c0.666 0 1.332 0 2 0 0.551 0 1 0.448 1 1v3zM16 19c1.104 0 2 0.895 2 2 0 0.609-0.328 1.768-0.666 2.682-0.273 0.738-0.552 1.316-1.334 1.316-0.719 0-1.061-0.584-1.333-1.326-0.334-0.912-0.667-2.065-0.667-2.672 0-1.105 0.896-2 2-2z"></path>
</symbol>
<symbol id="icon-profile" viewBox="0 0 32 32">
<path  d="M31.11 28.336c-0.201-0.133-3.848-2.525-9.273-3.699 1.99-2.521 3.268-5.912 3.811-8.169 0.754-3.128 0.461-9.248-2.543-13.062-1.756-2.229-4.213-3.406-7.105-3.406s-5.349 1.178-7.104 3.406c-3.004 3.813-3.296 9.933-2.543 13.061 0.543 2.257 1.82 5.648 3.811 8.169-5.425 1.174-9.072 3.566-9.272 3.699-0.733 0.488-1.061 1.4-0.805 2.242 0.254 0.845 1.033 1.423 1.913 1.423h28c0.881 0 1.658-0.578 1.914-1.422 0.257-0.842-0.071-1.754-0.804-2.242zM20.267 23.398l-0.326 0.414c-2.385 2.74-5.495 2.74-7.879 0l-0.327-0.414c-2.785-3.529-4.167-8.197-3.572-12.65 0.545-4.279 2.997-8.748 7.837-8.748s7.293 4.47 7.838 8.749c0.593 4.455-0.784 9.118-3.571 12.649zM2 30c0.138-0.092 3.526-2.314 8.586-3.408l2.484-0.537c0.887 0.582 1.86 0.945 2.93 0.945s2.043-0.363 2.93-0.945l2.484 0.537c5.020 1.086 8.396 3.283 8.586 3.408h-28z"></path>
</symbol>
<symbol id="icon-location" viewBox="0 0 32 32">
<path  d="M16.002 17.746c3.309 0 6-2.692 6-6s-2.691-6-6-6c-3.309 0-6 2.691-6 6s2.691 6 6 6zM16.002 6.746c2.758 0 5 2.242 5 5s-2.242 5-5 5c-2.758 0-5-2.242-5-5s2.242-5 5-5v0zM16 0c-6.618 0-12 5.316-12 12.001 0 7 6.001 14.161 10.376 19.194 0.016 0.020 0.718 0.805 1.586 0.805 0.002 0 0.073 0 0.077 0 0.867 0 1.57-0.785 1.586-0.805 4.377-5.033 10.377-12.193 10.377-19.194 0-6.685-5.383-12.001-12.002-12.001v0zM16.117 29.883c-0.021 0.020-0.082 0.064-0.135 0.098-0.010-0.027-0.084-0.086-0.129-0.133-3.665-4.217-9.853-11.334-9.853-17.847 0-5.514 4.487-10.001 10-10.001 5.516 0 10.002 4.487 10.002 10.002 0 6.512-6.188 13.629-9.885 17.881v0z"></path>
</symbol>
<symbol id="icon-stack" viewBox="0 0 32 32">
<path  d="M31.924 18.455l-4.002-15.006c-0.242-0.853-1.033-1.449-1.922-1.449h-20c-0.89 0-1.68 0.596-1.922 1.449l-4.002 15.006c-0.051 0.182-0.076 0.365-0.076 0.545v7c0 2.209 1.791 4 4 4h24c2.209 0 4-1.791 4-4v-7c0-0.18-0.025-0.363-0.076-0.545zM30 26c0 1.102-0.898 2-2 2h-24c-1.103 0-2-0.898-2-2v-7l4.001-15.001h19.997l4.002 15.001v7zM23.742 6h-15.484c-0.453 0-0.85 0.305-0.967 0.743l-3.445 12c-0.079 0.301-0.016 0.621 0.174 0.867s0.482 0.39 0.792 0.39h4.568l1.447 2.895c0.34 0.677 1.032 1.105 1.79 1.105h6.766c0.758 0 1.449-0.428 1.789-1.105l1.447-2.895h4.568c0.311 0 0.604-0.145 0.793-0.391s0.252-0.566 0.174-0.867l-3.445-12c-0.117-0.438-0.514-0.742-0.967-0.742zM24.281 18h-1.662c-0.762 0-1.447 0.422-1.789 1.105l-1.447 2.895h-6.766l-1.447-2.895c-0.342-0.683-1.027-1.105-1.789-1.105h-4.047l2.924-11h15.484l2.924 11h-2.385z"></path>
</symbol>
<symbol id="icon-study-1" viewBox="0 0 32 32">
<path  d="M32 8c0-1.406-0.957-2.608-2.326-2.924l-13.013-3.003c-0.218-0.049-0.44-0.073-0.661-0.073s-0.443 0.024-0.675 0.076l-12.999 3c-1.37 0.316-2.326 1.518-2.326 2.924s0.957 2.608 2.325 2.924l2.675 0.617v8.459c0 2.654 3.038 5 11 5s11-2.346 11-5v-8.459l2.674-0.617c1.369-0.316 2.326-1.518 2.326-2.924zM25 20c0 1.105-3 3-9 3s-9-1.895-9-3v-7.997l8.338 1.924c0.218 0.049 0.441 0.073 0.662 0.073s0.444-0.024 0.674-0.076l8.326-1.921v7.997zM16.225 11.975c-0.075 0.016-0.15 0.025-0.225 0.025s-0.151-0.009-0.225-0.025l-13-3c-0.454-0.105-0.775-0.509-0.775-0.975s0.321-0.87 0.775-0.975l13-3c0.074-0.016 0.149-0.025 0.225-0.025s0.151 0.009 0.225 0.025l13 3c0.453 0.105 0.775 0.509 0.775 0.975s-0.322 0.87-0.775 0.975l-13 3zM29 13c0-0.553 0.447-1 1-1 0.552 0 1 0.447 1 1v9c0 0.553-0.448 1-1 1-0.553 0-1-0.447-1-1v-9zM30 24c1.104 0 2 2.896 2 4s-0.896 2-2 2c-1.105 0-2-0.896-2-2s0.895-4 2-4z"></path>
</symbol>
<symbol id="icon-news" viewBox="0 0 32 32">
<path  d="M29 0h-22c-1.657 0-3 1.342-3 3v2h-1c-1.657 0-3 1.342-3 3v20c0 2.209 1.791 4 4 4h24c2.209 0 4-1.791 4-4v-25c0-1.658-1.344-3-3-3zM30 28c0 1.102-0.898 2-2 2h-24c-1.103 0-2-0.898-2-2v-20c0-0.552 0.448-1 1-1h1v20c0 0.553 0.447 1 1 1s1-0.447 1-1v-24c0-0.552 0.448-1 1-1h22c0.551 0 1 0.448 1 1v25zM19.498 13.005c-0.275 0-0.5-0.224-0.5-0.5s0.225-0.5 0.5-0.5h8c0.277 0 0.5 0.224 0.5 0.5s-0.223 0.5-0.5 0.5h-8zM19.498 10.005c-0.275 0-0.5-0.224-0.5-0.5s0.225-0.5 0.5-0.5h8c0.277 0 0.5 0.224 0.5 0.5s-0.223 0.5-0.5 0.5h-8zM19.498 7.005c-0.275 0-0.5-0.224-0.5-0.5s0.225-0.5 0.5-0.5h8c0.277 0 0.5 0.224 0.5 0.5s-0.223 0.5-0.5 0.5h-8zM16.5 27.004c0.276 0 0.5 0.225 0.5 0.5 0 0.277-0.225 0.5-0.5 0.5h-8c-0.276 0-0.5-0.223-0.5-0.5 0-0.275 0.224-0.5 0.5-0.5h8zM16.5 24.004c0.276 0 0.5 0.225 0.5 0.5 0 0.277-0.225 0.5-0.5 0.5h-8c-0.276 0-0.5-0.223-0.5-0.5 0-0.275 0.224-0.5 0.5-0.5h8zM16.5 21.004c0.276 0 0.5 0.225 0.5 0.5 0 0.277-0.225 0.5-0.5 0.5h-8c-0.276 0-0.5-0.223-0.5-0.5 0-0.275 0.224-0.5 0.5-0.5h8zM27.5 27.004c0.275 0 0.5 0.225 0.5 0.5 0 0.277-0.225 0.5-0.5 0.5h-8c-0.277 0-0.5-0.223-0.5-0.5 0-0.275 0.223-0.5 0.5-0.5h8zM27.5 24.004c0.275 0 0.5 0.225 0.5 0.5 0 0.277-0.225 0.5-0.5 0.5h-8c-0.277 0-0.5-0.223-0.5-0.5 0-0.275 0.223-0.5 0.5-0.5h8zM27.5 21.004c0.275 0 0.5 0.225 0.5 0.5 0 0.277-0.225 0.5-0.5 0.5h-8c-0.277 0-0.5-0.223-0.5-0.5 0-0.275 0.223-0.5 0.5-0.5h8zM27.5 15.004c0.275 0 0.5 0.224 0.5 0.5s-0.225 0.5-0.5 0.5h-19c-0.276 0-0.5-0.224-0.5-0.5s0.224-0.5 0.5-0.5h19zM27.5 18.004c0.275 0 0.5 0.225 0.5 0.5 0 0.277-0.225 0.5-0.5 0.5h-19c-0.276 0-0.5-0.223-0.5-0.5 0-0.275 0.224-0.5 0.5-0.5h19zM9 13h7c0.553 0 1-0.447 1-1v-6.996c0-0.553-0.447-1-1-1h-7c-0.553 0-1 0.447-1 1v6.996c0 0.552 0.447 1 1 1zM10 6h5v5h-5v-5z"></path>
</symbol>
<symbol id="icon-calendar" viewBox="0 0 32 32">
<path  d="M29.334 3h-4.334v-2c0-0.553-0.447-1-1-1s-1 0.447-1 1v2h-6v-2c0-0.553-0.448-1-1-1s-1 0.447-1 1v2h-6v-2c0-0.553-0.448-1-1-1s-1 0.447-1 1v2h-4.333c-1.473 0-2.667 1.193-2.667 2.666v23.667c0 1.473 1.194 2.667 2.667 2.667h26.667c1.473 0 2.666-1.194 2.666-2.667v-23.667c0-1.473-1.193-2.666-2.666-2.666zM30 29.333c0 0.368-0.299 0.667-0.666 0.667h-26.667c-0.368 0-0.667-0.299-0.667-0.667v-23.667c0-0.367 0.299-0.666 0.667-0.666h4.333v2c0 0.553 0.448 1 1 1s1-0.447 1-1v-2h6v2c0 0.553 0.448 1 1 1s1-0.447 1-1v-2h6v2c0 0.553 0.447 1 1 1s1-0.447 1-1v-2h4.334c0.367 0 0.666 0.299 0.666 0.666v23.667zM7 12h4v3h-4v-3zM7 17h4v3h-4v-3zM7 22h4v3h-4v-3zM14 22h4v3h-4v-3zM14 17h4v3h-4v-3zM14 12h4v3h-4v-3zM21 22h4v3h-4v-3zM21 17h4v3h-4v-3zM21 12h4v3h-4v-3z"></path>
</symbol>
<symbol id="icon-bubble" viewBox="0 0 32 32">
<path  d="M16 7c0.276 0 0.5 0.224 0.5 0.5s-0.225 0.5-0.5 0.5c-5.327 0-10 2.804-10 6 0 0.276-0.224 0.5-0.5 0.5s-0.5-0.224-0.5-0.5c0-3.794 5.037-7 11-7zM16 2c-8.837 0-16 5.373-16 12 0 4.127 2.779 7.766 7.008 9.926 0 0.027-0.008 0.045-0.008 0.074 0 1.793-1.339 3.723-1.928 4.736 0.001 0 0.002 0 0.002 0-0.047 0.11-0.074 0.231-0.074 0.358 0 0.5 0.405 0.906 0.906 0.906 0.094 0 0.259-0.025 0.255-0.014 3.125-0.512 6.069-3.383 6.753-4.215 0.999 0.147 2.029 0.229 3.086 0.229 8.835 0 16-5.373 16-12s-7.164-12-16-12zM16 24c-0.917 0-1.858-0.070-2.796-0.207-0.097-0.016-0.194-0.021-0.29-0.021-0.594 0-1.163 0.264-1.546 0.73-0.428 0.521-1.646 1.684-3.085 2.539 0.39-0.895 0.695-1.898 0.716-2.932 0.006-0.064 0.009-0.129 0.009-0.184 0-0.752-0.421-1.439-1.090-1.781-3.706-1.892-5.918-4.937-5.918-8.144 0-5.514 6.28-10 14-10 7.718 0 14 4.486 14 10s-6.281 10-14 10z"></path>
</symbol>
<symbol id="icon-mail" viewBox="0 0 32 32">
<path  d="M28 5h-24c-2.209 0-4 1.792-4 4v13c0 2.209 1.791 4 4 4h24c2.209 0 4-1.791 4-4v-13c0-2.208-1.791-4-4-4zM2 10.25l6.999 5.25-6.999 5.25v-10.5zM30 22c0 1.104-0.898 2-2 2h-24c-1.103 0-2-0.896-2-2l7.832-5.875 4.368 3.277c0.533 0.398 1.166 0.6 1.8 0.6s1.266-0.201 1.799-0.6l4.369-3.277 7.832 5.875zM30 20.75l-7-5.25 7-5.25v10.5zM17.199 18.602c-0.349 0.262-0.763 0.4-1.199 0.4s-0.851-0.139-1.2-0.4l-12.8-9.602c0-1.103 0.897-2 2-2h24c1.102 0 2 0.897 2 2l-12.801 9.602z"></path>
</symbol>
<symbol id="icon-dashboard" viewBox="0 0 32 32">
<path  d="M27 4.996l-22 0.004c-0.553 0-1 0.443-1 0.996v14c0 0.553 0.447 1 1 1h22c0.553 0 1-0.447 1-1v-14c0-0.553-0.447-1-1-1zM27 20h-22v-14.004h22v14.004zM29 1h-26c-1.657 0-3 1.342-3 3v20c0 1.654 1.338 2.994 2.99 2.998h10.010v1.217l-6.242 0.811c-0.446 0.111-0.758 0.511-0.758 0.97 0 0.553 0.447 1 1 1h18c0.553 0 1-0.447 1-1 0-0.459-0.312-0.859-0.758-0.971l-6.242-0.81v-1.217h10.010c1.652-0.004 2.99-1.344 2.99-2.998v-20c0-1.658-1.344-3-3-3zM30 24c0 0.551-0.449 1-1 1h-26c-0.552 0-1-0.449-1-1v-20c0-0.552 0.448-1 1-1h26c0.551 0 1 0.448 1 1v20z"></path>
</symbol>
<symbol id="icon-icon" viewBox="0 0 33 32">
<path fill="#9e8cfc" style="fill: var(--color7, #9e8cfc)" d="M16.462 31.99c8.627 0 15.62-7.159 15.62-15.99s-6.994-15.99-15.62-15.99c-8.627 0-15.62 7.159-15.62 15.99s6.993 15.99 15.62 15.99z"></path>
<path fill="#fff" style="fill: var(--color5, #fff)" d="M11.55 30.179c0.639 0.221 2.785 0.927 2.876 0.236 0.050-0.379-1.083-0.767-2.616-1.589-2.181-1.166-4.176-2.658-5.918-4.424-2.543-2.523-4.005-5.956-4.072-9.559-0.13-4.838 1.739-8.748 4.813-11.272-3.759 2.936-6.010 7.431-6.127 12.235-0.091 3.499 0.876 6.447 2.692 9.13 0.564 0.737 1.223 1.394 1.96 1.954 1.741 1.332 4.286 2.564 6.391 3.288z"></path>
<path fill="#fff" style="fill: var(--color5, #fff)" d="M32.297 12.335c-0.968-4.609-3.979-7.835-8.007-10.115 3.087 2.218 7.419 6.935 4.858 11.096-2.166 3.333-7.427 2.68-10.312 1.096-3.422-1.879-7.705-6.106-3.481-10.237 2.739-2.674 11.449 0.324 9.916 4.321-0.894 2.325-4.375 1.808-5.941 0.672-1.154-0.839-2.126-2.281-1.611-3.77 0.164-0.477 0.141-1.218-0.526-0.673-0.492 0.407-0.747 1.077-0.834 1.703-0.729 5.212 8.448 9.252 11.171 4.21 1.413-2.618-0.877-6.419-3.76-7.975-2.166-1.174-4.42-1.999-7.184-1.799-4.419 0.313-8.126 3.115-8.591 7.684-0.464 4.54 2.536 8.626 6.068 11.070 3.713 2.567 8.704 4.26 13.272 2.729 4.094-1.373 5.785-6.128 4.962-10.008z"></path>
</symbol>
</defs>
</svg>
