<svg aria-hidden="true" style="position: absolute; width: 0; height: 0; overflow: hidden;" version="1.1" xmlns="http://www.w3.org/2000/svg" xmlns:xlink="http://www.w3.org/1999/xlink">
<defs>
<symbol id="icon-Tweter" viewBox="0 0 37 32">
<path  d="M-0.533 27.2c3.467 2.133 7.467 3.467 12 3.467 14.133 0 22.133-12 22.133-22.133q0-0.533 0-1.067 2.133-1.6 3.733-4-2.133 1.067-4.533 1.333c1.6-1.067 2.933-2.4 3.467-4.267q-2.133 1.333-4.8 1.867c-1.6-1.6-3.467-2.4-5.867-2.4-4.267 0-7.733 3.467-7.733 7.733q0 0.8 0.267 1.6c-6.4-0.267-12-3.2-16-8q-1.067 1.867-1.067 4c0 2.667 1.333 5.067 3.467 6.4q-1.867 0-3.467-1.067v0.267c0 3.733 2.667 6.667 6.133 7.467q-0.8 0.267-1.867 0.267-0.8 0-1.6 0c1.067 2.933 4 5.067 7.2 5.333-2.667 1.867-5.867 3.2-9.6 3.2q-0.8 0-1.867 0z"></path>
</symbol>
<symbol id="icon-Facebook" viewBox="0 0 15 32">
<path  d="M3.627 30.293h6.187v-14.933h4.267l0.64-5.333h-4.907v-3.2c0-1.067 0.853-1.493 1.493-1.493h3.2v-5.12h-4.48c-5.333 0-6.4 3.84-6.4 6.4v3.413h-2.987v5.333h2.987z"></path>
</symbol>
<symbol id="icon-Google" viewBox="0 0 30 32">
<path  d="M17.067 2.987h-2.347c1.707 1.067 2.56 2.987 2.56 5.12 0 1.92-1.067 3.413-2.773 4.693-1.493 1.067-1.707 1.707-1.707 2.56s1.92 2.133 2.56 2.773c2.987 2.133 3.627 3.627 3.627 6.187 0 3.413-3.627 6.827-9.6 6.827-5.12 0-9.6-2.133-9.6-5.547s3.627-7.040 8.747-7.040q0.853 0 1.707 0c-0.64-0.64-1.28-1.28-1.28-2.347q0-0.853 0.427-1.707-0.427 0.213-0.853 0.213c-4.267 0-6.613-2.987-6.613-6.827 0-3.627 3.627-7.040 8.107-7.040h8.96zM12.16 20.053q-1.067-0.213-2.347-0.213c-3.627-0.213-6.613 2.133-6.613 4.907 0 2.56 2.56 4.907 6.187 4.907 5.12 0 6.827-2.133 6.827-4.907q0-0.427-0.213-0.853c-0.213-1.493-1.92-2.347-3.84-3.84zM13.653 8.32c-0.427-3.2-2.347-5.76-4.693-5.973-2.56 0-4.053 2.347-3.627 5.547s2.56 5.333 5.12 5.333c2.347 0.213 3.627-1.92 3.2-4.907zM30.080 5.547v1.92h-4.053v4.267h-2.133v-4.267h-4.053v-1.92h4.053v-4.053h2.133v4.053z"></path>
</symbol>
<symbol id="icon-Dribble" viewBox="0 0 32 32">
<path  d="M30.72 9.813q-0.427-1.28-1.28-2.56t-1.92-2.347q-1.067-0.853-2.133-1.707-1.28-0.853-2.56-1.493-1.493-0.427-2.987-0.853-1.493-0.213-2.987-0.213t-2.987 0.213q-1.493 0.427-2.987 0.853-1.28 0.64-2.56 1.493-1.067 0.853-2.133 1.707-1.067 1.067-1.92 2.347t-1.28 2.56q-0.64 1.28-1.067 2.773-0.213 1.493-0.213 2.987 0 1.707 0.213 3.2 0.427 1.28 1.067 2.773 0.427 1.28 1.28 2.56t1.92 2.133q1.067 1.067 2.133 1.92 1.28 0.853 2.56 1.28 1.493 0.64 2.987 1.067 1.493 0.213 2.987 0.213t2.987-0.213q1.493-0.427 2.987-1.067 1.28-0.427 2.56-1.28 1.067-0.853 2.133-1.92 1.067-0.853 1.92-2.133t1.28-2.56q0.64-1.493 0.853-2.773 0.427-1.493 0.427-3.2 0-1.493-0.427-2.987-0.213-1.493-0.853-2.773zM16.853 2.773c3.2 0 6.187 1.28 8.533 3.2 0 0-1.92 2.773-6.827 4.693-2.133-4.053-4.48-7.253-4.693-7.467q1.493-0.427 2.987-0.427zM13.653 3.2q0 0 0 0t0 0zM11.307 4.053c0.213 0.213 2.56 3.413 4.907 7.467-6.187 1.493-11.733 1.493-11.947 1.493 0.853-4.053 3.413-7.253 7.040-8.96zM7.253 24.32q0 0 0 0t0 0zM7.253 24.32c-2.133-2.347-3.413-5.333-3.413-8.747q0-0.213 0-0.213c0.427 0 6.613 0 13.44-1.92q0.427 1.067 1.067 2.133-0.427 0.213-0.64 0.213c-7.040 2.133-10.453 8.533-10.453 8.533zM8.96 25.813q0 0-0.427-0.213 0.213 0 0.427 0.213zM16.853 28.587c-2.987 0-5.76-1.067-7.893-2.773 0-0.213 2.56-5.547 10.027-8.107q0 0 0.213 0c1.707 4.693 2.56 8.747 2.773 9.813q-2.347 1.067-5.12 1.067zM24.107 26.24c-0.213-0.64-0.853-4.48-2.56-9.173 4.267-0.64 7.893 0.427 8.107 0.64-0.64 3.627-2.773 6.613-5.547 8.533zM20.693 15.147q0-0.427-0.213-0.64-0.427-1.067-0.853-1.92c5.12-2.133 7.253-5.12 7.253-5.12 1.707 2.133 2.773 4.907 2.987 8.107-0.213 0-4.693-1.067-9.173-0.427z"></path>
</symbol>
</defs>
</svg>
